<?xml version="1.0" encoding="UTF-8"?>
<svg width="41px" height="49px" viewBox="0 0 41 49" version="1.1" xmlns="http://www.w3.org/2000/svg" xmlns:xlink="http://www.w3.org/1999/xlink">
    <!-- Generator: Sketch 50.2 (55047) - http://www.bohemiancoding.com/sketch -->
    <title>Group 4</title>
    <desc>Created with Sketch.</desc>
    <defs>
        <linearGradient x1="50%" y1="100%" x2="50%" y2="0%" id="linearGradient-1">
            <stop stop-color="#B1B1B1" offset="0%"></stop>
            <stop stop-color="#CCCCCC" offset="100%"></stop>
        </linearGradient>
    </defs>
    <g id="app" stroke="none" stroke-width="1" fill="none" fill-rule="evenodd">
        <g id="首页-已开业" transform="translate(-168.000000, -328.000000)">
            <g id="Group-4" transform="translate(168.000000, 328.000000)">
                <path d="M20.5,49 C20.5,49 41,39.3215055 41,20.8330592 C41,9.32853618 31.8238095,0 20.5,0 C9.17619048,0 0,9.32853618 0,20.8330592 C0,38.5276795 20.5,49 20.5,49 Z" id="map" fill="url(#linearGradient-1)"></path>
                <ellipse id="Oval-9" stroke="#8E8E8E" stroke-width="1.08" cx="20.5" cy="20.6888889" rx="14.0263158" ry="14.1555556"></ellipse>
                <path d="M18.3421053,13.0666667 L18.3310825,27.515324 L17.2495851,29.4 L14.7402272,29.4 L15.870892,27.3448124 L15.906041,23.6434374 L11.9651696,23.6434374 L12.465437,15.7588613 L14.573398,15.7588613 L14.1202028,21.8285845 L15.953833,21.8285845 L15.9733757,14.8935191 L12.4660634,14.8935191 L11.8684211,13.0666667 L18.3421053,13.0666667 Z M15.1052632,25.0447229 L15.1016377,27.2222222 L12.5770456,27.2222222 L11.8684211,25.0444444 L15.1052632,25.0447229 Z M25.2808206,25.2175704 L28.7795383,25.2175704 L28.0136542,26.962854 L25.2220693,26.962854 L25.2486624,29.4 L22.6322176,29.4 L22.6056246,26.962854 L19.4210862,26.962854 L19.4210526,25.2178472 L22.6662653,25.2175704 L22.6769705,24.068262 L19.4233469,24.068262 L19.4341622,22.3229784 L23.1859015,22.3229784 L24.0698482,21.7777778 L25.070372,22.3229784 L29.1315789,22.3229784 L28.3656949,24.068262 L25.283799,24.068262 L25.2808206,25.2175704 Z M29.1315789,18.7120677 L29.1315789,20.6888889 L25.4035013,20.6888889 L24.3731582,20.0379937 L23.3855528,20.6888889 L19.4210526,20.6888889 L19.4501337,18.7127014 L21.7704413,18.7127014 L19.4754988,16.8777778 L19.4473045,14.8546139 L22.5560769,14.8546139 L22.5471061,16.3231728 L24.2926506,17.9358591 L26.2485972,16.3231728 L26.2574584,14.8546139 L19.4473045,14.8546139 L19.4785592,13.0666667 L29.1131809,13.0666667 L29.1101205,16.8777778 L26.9412239,18.7127014 L29.1315789,18.7120677 Z" id="Combined-Shape" fill="#676767" fill-rule="nonzero"></path>
            </g>
        </g>
    </g>
</svg>